<?xml version="1.0" encoding="UTF-8"?>
<svg id="Layer_2" data-name="Layer 2" xmlns="http://www.w3.org/2000/svg" viewBox="0 0 1324.47 334.21">
  <defs>
    <style>
      .cls-1 {
        fill: #121522;
      }
    </style>
  </defs>
  <g id="Layer_2-2" data-name="Layer 2">
    <path class="cls-1" d="M421.71,195.16c-11.49-7.64-19.13-21.24-19.13-36.74s7.39-28.65,18.56-36.35c9.74-6.71,12.58-19.85,6.54-30.03C402.55,49.61,354.36,16.21,294.69.31c-6.98-1.86-12.76,5.25-9.85,11.86,1.25,2.83,1.91,5.79,1.91,8.83,0,21.07-31.74,38.15-70.92,38.2h-.17c-39.26,0-71.08-17.1-71.08-38.2,0-3.04.66-6,1.91-8.84,2.91-6.61-2.87-13.72-9.85-11.86C77.28,16.13,29.28,49.27,4.04,91.39c-6.17,10.28-3.13,23.57,6.82,30.26,11.38,7.65,18.94,21.19,18.94,36.61s-7.77,29.34-19.42,36.93c-10.17,6.64-13.41,19.97-7.29,30.47,16.93,29.06,44.65,53.93,79.46,71.93,7.51,3.88,16.22,4.7,24.31,2.26,28.19-8.48,66.62-13.7,108.97-13.7s80.62,5.2,108.79,13.65c8.09,2.42,16.8,1.6,24.3-2.28,35.08-18.16,62.93-43.3,79.8-72.67,5.83-10.16,2.75-23.21-7.01-29.69ZM140.15,218.95c-30.49,0-55.21-24-55.21-53.61s24.72-53.61,55.21-53.61,55.21,24,55.21,53.61-24.72,53.61-55.21,53.61ZM291.51,218.95c-30.49,0-55.21-24-55.21-53.61s24.72-53.61,55.21-53.61,55.21,24,55.21,53.61-24.72,53.61-55.21,53.61Z"/>
    <g>
      <path class="cls-1" d="M556.51,260.05V60.48c0-6.54,5.3-11.84,11.84-11.84h73.55c13.59,0,25.44,2.29,35.53,6.85,10.09,4.57,17.95,11.05,23.58,19.44,5.63,8.39,8.44,18.43,8.44,30.11v3.19c0,10.2-1.91,18.54-5.74,25.01-3.82,6.48-8.34,11.47-13.54,14.98-4.36,2.94-8.54,5.17-12.53,6.69-1.38.53-2.29,1.85-2.29,3.33v.57c0,1.54.99,2.89,2.44,3.39,3.99,1.37,8.27,3.51,12.85,6.41,5.52,3.51,10.25,8.55,14.18,15.14,3.93,6.59,5.9,15.19,5.9,25.81v3.19c0,12.32-2.87,22.89-8.6,31.71-5.74,8.82-13.65,15.56-23.74,20.23-10.09,4.68-21.83,7.01-35.21,7.01-2.08,0-51.67.57-75.02.2-6.47-.1-11.65-5.38-11.65-11.84ZM556.51,231.16V89.17M598.57,136.84c0,1.97,1.6,3.57,3.57,3.57h35.31c8.71,0,15.88-2.23,21.51-6.69,5.63-4.46,8.45-10.62,8.45-18.48v-3.19c0-8.07-2.76-14.28-8.29-18.64-5.53-4.35-12.75-6.53-21.67-6.53h-35.31c-1.97,0-3.57,1.6-3.57,3.57v46.4ZM598.57,229.89c0,1.97,1.6,3.57,3.57,3.57h35.94c9.13,0,16.51-2.23,22.15-6.69,5.63-4.46,8.44-10.83,8.44-19.12v-3.19c0-8.28-2.76-14.66-8.28-19.12-5.53-4.46-12.96-6.69-22.31-6.69h-35.94c-1.97,0-3.57,1.6-3.57,3.57v47.67Z"/>
      <path class="cls-1" d="M801.81,274.37c-15.72,0-29.85-3.19-42.38-9.56-12.54-6.37-22.42-15.61-29.63-27.72-7.22-12.11-10.83-26.66-10.83-43.65v-5.1c0-16.99,3.61-31.55,10.83-43.66,7.22-12.11,17.1-21.35,29.63-27.72,12.53-6.37,26.66-9.56,42.38-9.56s29.84,3.19,42.38,9.56c12.53,6.37,22.41,15.61,29.63,27.72,7.22,12.11,10.83,26.66,10.83,43.66v5.1c0,17-3.61,31.55-10.83,43.65-7.22,12.11-17.1,21.35-29.63,27.72-12.54,6.37-26.66,9.56-42.38,9.56ZM801.81,238.69c12.32,0,22.51-3.98,30.59-11.95,8.07-7.97,12.11-19.38,12.11-34.25v-3.19c0-14.87-3.98-26.29-11.95-34.26-7.97-7.97-18.22-11.95-30.75-11.95s-22.52,3.98-30.59,11.95c-8.08,7.97-12.11,19.39-12.11,34.26v3.19c0,14.87,4.03,26.29,12.11,34.25,8.07,7.97,18.27,11.95,30.59,11.95Z"/>
      <path class="cls-1" d="M957.9,272.02c-10.23,0-18.52-3.24-24.88-9.72-6.37-6.48-9.55-15.14-9.55-25.97v-85.65c0-1.97-1.57-3.57-3.51-3.57h-31.8c-1.94,0-3.51-1.6-3.51-3.57v-26c0-1.97,1.57-3.57,3.51-3.57h31.8c1.94,0,3.51-1.6,3.51-3.57v-41.93c0-1.97,1.57-3.57,3.51-3.57h32.43c1.94,0,3.51,1.6,3.51,3.57v41.93c0,1.97,1.57,3.57,3.51,3.57h35.56c1.94,0,3.51,1.6,3.51,3.57v26c0,1.97-1.57,3.57-3.51,3.57h-35.56c-1.94,0-3.51,1.6-3.51,3.57v78.64c0,6.37,2.92,9.56,8.76,9.56h26.54c1.94,0,3.51,1.6,3.51,3.57v26c0,1.97-1.57,3.57-3.51,3.57h-40.32Z"/>
      <path class="cls-1" d="M1089.88,274.37c-20.61,0-37.5-4.46-50.67-13.38-12.27-8.31-20.02-19.94-23.26-34.88-.4-1.87.76-3.72,2.6-4.2l30.17-7.8c1.92-.5,3.85.68,4.35,2.6,1.52,5.79,3.75,10.46,6.68,14.01,3.5,4.25,7.86,7.28,13.06,9.08,5.2,1.81,10.88,2.71,17.05,2.71,9.35,0,16.25-1.64,20.71-4.94,4.46-3.29,6.69-7.38,6.69-12.27s-2.13-8.65-6.37-11.31c-4.25-2.65-11.05-4.83-20.39-6.53l-8.92-1.59c-11.05-2.12-21.14-5.04-30.27-8.76-9.14-3.71-16.47-8.87-21.99-15.45-5.53-6.58-8.28-15.08-8.28-25.49,0-15.72,5.74-27.77,17.21-36.17,11.47-8.39,26.55-12.59,45.25-12.59,17.63,0,32.29,3.93,43.97,11.79,10.59,7.13,17.87,16.26,21.83,27.4.68,1.91-.4,3.97-2.33,4.57l-30.26,9.31c-1.89.58-3.89-.48-4.46-2.37-1.89-6.27-5.05-10.84-9.47-13.74-5.21-3.4-11.63-5.1-19.28-5.1s-13.49,1.33-17.53,3.98c-4.04,2.66-6.05,6.32-6.05,10.99,0,5.1,2.12,8.87,6.37,11.31,4.25,2.44,9.98,4.3,17.21,5.58l8.92,1.59c11.89,2.13,22.67,4.94,32.34,8.44,9.66,3.51,17.31,8.5,22.94,14.98,5.63,6.48,8.44,15.25,8.44,26.29,0,16.57-6,29.37-18,38.4-12,9.03-28.1,13.54-48.27,13.54Z"/>
      <path class="cls-1" d="M1196.87,330.65v-27.91c0-1.97,1.6-3.57,3.57-3.57h75.6c5.95,0,8.92-3.19,8.92-9.56v-36.26c0-1.97-1.6-3.57-3.57-3.57h0c-1.29,0-2.48.7-3.11,1.83-1.68,3-4.02,6-7.02,9-3.61,3.61-8.5,6.59-14.66,8.92-6.16,2.33-14.02,3.5-23.58,3.5-12.32,0-23.1-2.81-32.34-8.44-9.24-5.63-16.41-13.43-21.51-23.42-5.1-9.98-7.65-21.45-7.65-34.41v-90.75c0-1.97,1.6-3.57,3.57-3.57h33.01c1.97,0,3.57,1.6,3.57,3.57v87.57c0,11.9,2.92,20.82,8.76,26.77,5.84,5.95,14.18,8.92,25.01,8.92,12.32,0,21.88-4.09,28.68-12.27,6.8-8.18,10.2-19.6,10.2-34.25v-76.73c0-1.97,1.6-3.57,3.57-3.57h33.01c1.97,0,3.57,1.6,3.57,3.57v182.52c0,10.83-3.19,19.49-9.56,25.97-6.37,6.48-14.87,9.72-25.49,9.72h-88.98c-1.97,0-3.57-1.6-3.57-3.57Z"/>
    </g>
  </g>
</svg>