<?xml version="1.0" encoding="UTF-8"?>
<svg id="Layer_2" data-name="Layer 2" xmlns="http://www.w3.org/2000/svg" viewBox="0 0 431.67 383.76">
  <defs>
    <style>
      .cls-1 {
        fill: #121522;
      }
    </style>
  </defs>
  <g id="Layer_2-2" data-name="Layer 2">
    <g>
      <path class="cls-1" d="M299.91,335.73c-7-24.22-89.25-21.64-112.16-20.07-17.63,1.66-46.54,3.76-54.89,17.43-3.11,5.67-.54,12.1,3.18,17.11,12.13,15.27,33.07,26.57,59.74,31.79,24.93,4.62,52.12.04,74.3-11.66,13.48-7.12,32.33-20.59,29.84-34.51l-.02-.1Z"/>
      <path class="cls-1" d="M421.71,195.16c-11.49-7.64-19.13-21.24-19.13-36.74s7.39-28.65,18.56-36.35c9.74-6.71,12.58-19.85,6.54-30.03C402.55,49.61,354.36,16.21,294.69.31c-6.98-1.86-12.76,5.25-9.85,11.86,1.25,2.83,1.91,5.79,1.91,8.83,0,21.07-31.74,38.15-70.92,38.2h-.17c-39.26,0-71.08-17.1-71.08-38.2,0-3.04.66-6,1.91-8.84,2.91-6.61-2.87-13.72-9.85-11.86C77.28,16.13,29.28,49.27,4.04,91.39c-6.17,10.28-3.13,23.57,6.82,30.26,11.38,7.65,18.94,21.19,18.94,36.61s-7.77,29.34-19.42,36.93c-10.17,6.64-13.41,19.97-7.29,30.47,16.93,29.06,44.65,53.93,79.46,71.93,7.51,3.88,16.22,4.7,24.31,2.26,28.19-8.48,66.62-13.7,108.97-13.7s80.62,5.2,108.79,13.65c8.09,2.42,16.8,1.6,24.3-2.28,35.08-18.16,62.93-43.3,79.8-72.67,5.83-10.16,2.75-23.21-7.01-29.69ZM140.15,218.95c-30.49,0-55.21-24-55.21-53.61s24.72-53.61,55.21-53.61,55.21,24,55.21,53.61-24.72,53.61-55.21,53.61ZM291.51,218.95c-30.49,0-55.21-24-55.21-53.61s24.72-53.61,55.21-53.61,55.21,24,55.21,53.61-24.72,53.61-55.21,53.61Z"/>
    </g>
  </g>
</svg>