<?xml version="1.0" encoding="UTF-8"?>
<svg id="Layer_2" data-name="Layer 2" xmlns="http://www.w3.org/2000/svg" viewBox="0 0 1451.1 385.56">
  <defs>
    <style>
      .cls-1 {
        fill: #bad532;
      }
    </style>
  </defs>
  <g id="Layer_2-2" data-name="Layer 2">
    <g>
      <path class="cls-1" d="M299.91,335.73c-7-24.22-89.25-21.64-112.16-20.07-17.63,1.66-46.54,3.76-54.89,17.43-3.11,5.67-.54,12.1,3.18,17.11,12.13,15.27,33.07,26.57,59.74,31.79,24.93,4.62,52.12.04,74.3-11.66,13.48-7.12,32.33-20.59,29.84-34.51l-.02-.1Z"/>
      <path class="cls-1" d="M421.71,195.16c-11.49-7.64-19.13-21.24-19.13-36.74s7.39-28.65,18.56-36.35c9.74-6.71,12.58-19.85,6.54-30.03C402.55,49.61,354.36,16.21,294.69.31c-6.98-1.86-12.76,5.25-9.85,11.86,1.25,2.83,1.91,5.79,1.91,8.83,0,21.07-31.74,38.15-70.92,38.2h-.17c-39.26,0-71.08-17.1-71.08-38.2,0-3.04.66-6,1.91-8.84,2.91-6.61-2.87-13.72-9.85-11.86C77.28,16.13,29.28,49.27,4.04,91.39c-6.17,10.28-3.13,23.57,6.82,30.26,11.38,7.65,18.94,21.19,18.94,36.61s-7.77,29.34-19.42,36.93c-10.17,6.64-13.41,19.97-7.29,30.47,16.93,29.06,44.65,53.93,79.46,71.93,7.51,3.88,16.22,4.7,24.31,2.26,28.19-8.48,66.62-13.7,108.97-13.7s80.62,5.2,108.79,13.65c8.09,2.42,16.8,1.6,24.3-2.28,35.08-18.16,62.93-43.3,79.8-72.67,5.83-10.16,2.75-23.21-7.01-29.69ZM140.15,218.95c-30.49,0-55.21-24-55.21-53.61s24.72-53.61,55.21-53.61,55.21,24,55.21,53.61-24.72,53.61-55.21,53.61ZM291.51,218.95c-30.49,0-55.21-24-55.21-53.61s24.72-53.61,55.21-53.61,55.21,24,55.21,53.61-24.72,53.61-55.21,53.61Z"/>
    </g>
    <g>
      <path class="cls-1" d="M558.78,297.98V66.1c0-7.6,6.16-13.76,13.76-13.76h85.46c15.79,0,29.56,2.66,41.28,7.96,11.72,5.31,20.86,12.84,27.4,22.59,6.54,9.75,9.81,21.42,9.81,34.99v3.7c0,11.85-2.22,21.54-6.66,29.06-4.44,7.53-9.69,13.33-15.73,17.4-5.06,3.41-9.91,6-14.53,7.76-1.61.62-2.68,2.15-2.68,3.87v.67c0,1.76,1.09,3.35,2.75,3.91,4.66,1.59,9.67,4.09,15.02,7.48,6.42,4.07,11.91,9.94,16.48,17.59,4.56,7.65,6.85,17.65,6.85,29.99v3.7c0,14.32-3.33,26.6-10,36.84-6.66,10.25-15.86,18.08-27.58,23.51-11.73,5.43-25.36,8.15-40.91,8.15-1.43,1.43-60.03.66-87.17.23-7.51-.12-13.54-6.25-13.54-13.76ZM558.78,264.42V99.43M607.66,154.82c0,2.29,1.86,4.15,4.15,4.15h41.02c10.12,0,18.45-2.59,24.99-7.77,6.54-5.18,9.81-12.34,9.81-21.47v-3.7c0-9.38-3.21-16.6-9.63-21.66-6.42-5.06-14.81-7.59-25.18-7.59h-41.02c-2.29,0-4.15,1.86-4.15,4.15v53.91ZM607.66,262.94c0,2.29,1.86,4.15,4.15,4.15h41.76c10.61,0,19.19-2.59,25.73-7.78,6.54-5.18,9.81-12.59,9.81-22.21v-3.7c0-9.63-3.21-17.03-9.63-22.21-6.42-5.18-15.06-7.78-25.92-7.78h-41.76c-2.29,0-4.15,1.86-4.15,4.15v55.39Z"/>
      <path class="cls-1" d="M843.8,316.7c-18.27,0-34.68-3.7-49.24-11.11-14.57-7.41-26.04-18.14-34.43-32.21-8.39-14.07-12.59-30.97-12.59-50.72v-5.92c0-19.74,4.19-36.65,12.59-50.72,8.39-14.07,19.87-24.81,34.43-32.21,14.56-7.4,30.97-11.11,49.24-11.11s34.68,3.7,49.24,11.11c14.56,7.4,26.04,18.14,34.43,32.21,8.39,14.07,12.59,30.98,12.59,50.72v5.92c0,19.75-4.2,36.65-12.59,50.72-8.39,14.07-19.87,24.81-34.43,32.21-14.57,7.41-30.98,11.11-49.24,11.11ZM843.8,275.23c14.31,0,26.16-4.63,35.54-13.88,9.38-9.26,14.07-22.52,14.07-39.8v-3.7c0-17.27-4.63-30.55-13.88-39.8s-21.17-13.88-35.73-13.88-26.17,4.63-35.54,13.88c-9.38,9.26-14.07,22.53-14.07,39.8v3.7c0,17.28,4.69,30.55,14.07,39.8,9.38,9.26,21.23,13.88,35.54,13.88Z"/>
      <path class="cls-1" d="M1025.17,311.51c-11.88,0-21.52-3.76-28.91-11.29-7.4-7.53-11.09-17.59-11.09-30.17v-99.52c0-2.29-1.82-4.15-4.07-4.15h-36.95c-2.25,0-4.07-1.86-4.07-4.15v-30.21c0-2.29,1.82-4.15,4.07-4.15h36.95c2.25,0,4.07-1.86,4.07-4.15v-48.73c0-2.29,1.82-4.15,4.07-4.15h37.68c2.25,0,4.07,1.86,4.07,4.15v48.73c0,2.29,1.82,4.15,4.07,4.15h41.32c2.25,0,4.07,1.86,4.07,4.15v30.21c0,2.29-1.82,4.15-4.07,4.15h-41.32c-2.25,0-4.07,1.86-4.07,4.15v91.38c0,7.41,3.39,11.11,10.18,11.11h30.84c2.25,0,4.07,1.86,4.07,4.15v30.21c0,2.29-1.82,4.15-4.07,4.15h-46.84Z"/>
      <path class="cls-1" d="M1178.52,316.7c-23.94,0-43.57-5.18-58.87-15.55-14.26-9.65-23.26-23.16-27.02-40.53-.47-2.17.88-4.32,3.03-4.88l35.06-9.07c2.2-.57,4.46.74,5.04,2.94,1.76,6.76,4.36,12.21,7.78,16.36,4.07,4.94,9.13,8.46,15.18,10.55,6.05,2.1,12.65,3.15,19.81,3.15,10.86,0,18.88-1.91,24.07-5.74,5.18-3.82,7.78-8.57,7.78-14.25s-2.47-10.05-7.4-13.14c-4.94-3.08-12.84-5.61-23.7-7.59l-10.37-1.85c-12.84-2.46-24.56-5.86-35.17-10.18-10.62-4.32-19.13-10.3-25.55-17.96-6.42-7.65-9.63-17.52-9.63-29.62,0-18.26,6.66-32.27,19.99-42.02,13.33-9.75,30.85-14.62,52.58-14.62,20.49,0,37.52,4.57,51.09,13.7,12.28,8.27,20.72,18.85,25.33,31.76.8,2.23-.41,4.69-2.68,5.38l-35.16,10.82c-2.19.67-4.52-.56-5.18-2.76-2.2-7.28-5.87-12.6-11.01-15.96-6.05-3.95-13.51-5.92-22.4-5.92s-15.68,1.54-20.36,4.63c-4.69,3.09-7.04,7.35-7.04,12.77,0,5.92,2.46,10.31,7.41,13.14,4.93,2.84,11.6,5,19.99,6.48l10.37,1.85c13.82,2.47,26.35,5.74,37.58,9.81,11.23,4.07,20.11,9.88,26.66,17.4,6.54,7.53,9.81,17.71,9.81,30.55,0,19.25-6.98,34.13-20.92,44.62-13.95,10.49-32.64,15.74-56.09,15.74Z"/>
      <path class="cls-1" d="M1302.83,381.42v-32.43c0-2.29,1.86-4.15,4.15-4.15h87.84c6.91,0,10.37-3.7,10.37-11.11v-42.13c0-2.29-1.86-4.15-4.15-4.15h0c-1.51,0-2.89.83-3.63,2.15-1.95,3.48-4.67,6.96-8.15,10.44-4.2,4.2-9.88,7.65-17.03,10.37-7.16,2.71-16.29,4.07-27.4,4.07-14.32,0-26.84-3.27-37.58-9.81-10.74-6.54-19.07-15.61-24.99-27.21-5.92-11.6-8.89-24.93-8.89-39.99v-105.45c0-2.29,1.86-4.15,4.15-4.15h38.36c2.29,0,4.15,1.86,4.15,4.15v101.74c0,13.83,3.39,24.19,10.18,31.1,6.79,6.91,16.48,10.37,29.06,10.37,14.31,0,25.42-4.75,33.32-14.25,7.9-9.5,11.85-22.77,11.85-39.8v-89.16c0-2.29,1.86-4.15,4.15-4.15h38.36c2.29,0,4.15,1.86,4.15,4.15v212.08c0,12.59-3.7,22.64-11.11,30.17-7.41,7.53-17.28,11.29-29.62,11.29h-103.39c-2.29,0-4.15-1.86-4.15-4.15Z"/>
    </g>
  </g>
</svg>