<?xml version="1.0" encoding="UTF-8"?>
<svg id="Layer_2" data-name="Layer 2" xmlns="http://www.w3.org/2000/svg" viewBox="0 0 991.15 327.39">
  <defs>
    <style>
      .cls-1 {
        fill: #bad532;
      }
    </style>
  </defs>
  <g id="Layer_2-2" data-name="Layer 2">
    <path class="cls-1" d="M154.38,125.11c-2.01-.25-3.06-1.5-.64-2.3,24.77-5.27,48.01-25.37,48.01-60.7S165.92,0,123.66,0H6.97C3.12,0,0,3.12,0,6.97v244.95c0,3.85,3.12,6.97,6.97,6.97h124.44c29.58,0,79.99-20.76,79.99-69.48,0-28.94-15.72-58.85-57.02-64.3ZM58.43,44.18h53.33c14.83,0,27.3,10.11,30.89,23.81v16.24c-3.59,13.7-16.06,23.81-30.89,23.81h-53.33v-63.86ZM118.07,214.72h-60.93v-68.54h60.93c18.93,0,34.27,15.34,34.27,34.27s-15.34,34.27-34.27,34.27Z"/>
    <path class="cls-1" d="M331.35,108.04c31.45,0,56.94,24.42,56.94,54.54s-25.49,54.54-56.94,54.54-56.94-24.42-56.94-54.54,25.49-54.54,56.94-54.54M331.35,62.04c-57.88,0-104.97,45.1-104.97,100.54s47.09,100.54,104.97,100.54,104.97-45.1,104.97-100.54-47.09-100.54-104.97-100.54h0Z"/>
    <path class="cls-1" d="M578.68,256.62c.58,2.49-.99,4.99-3.5,5.54-5.51,1.2-10.99,2.07-16.45,2.62-6.96.7-9.29.77-15.61.77-23.63,0-41.7-4.79-54.21-14.38-12.52-9.58-18.78-23.32-18.78-41.21l-.65-97.36c-.02-2.52-2.07-4.56-4.59-4.56h-23.99c-2.53,0-4.59-2.05-4.59-4.59v-37.37c0-2.53,2.05-4.59,4.59-4.59h23.62c2.55,0,4.61-2.07,4.59-4.62l-.28-41.34c-.02-2.55,2.04-4.62,4.59-4.62h54.07c2.53,0,4.59,2.05,4.59,4.59v41.4c0,2.53,2.05,4.59,4.59,4.59h34.9c2.53,0,4.59,2.05,4.59,4.59v37.37c0,2.53-2.05,4.59-4.59,4.59h-34.9c-2.53,0-4.59,2.05-4.59,4.59v87.58c0,6.2,1.65,10.79,4.95,13.77,3.31,2.98,8.83,4.47,16.56,4.47,2.39,0,1.45.02,5.81-.51,2.18-.27,4.1-.52,5.75-.77,2.37-.35,4.6,1.17,5.14,3.5l8.38,35.95Z"/>
    <path class="cls-1" d="M688.51,267.35c-16.24,0-30.62-2.32-43.13-6.95-12.51-4.63-22.74-11.37-30.68-20.21-5.67-6.31-9.9-13.55-12.68-21.73-1.82-5.33,1.59-11.03,7.15-11.99l32.82-5.65c4.16-.72,8.37,1.41,10.08,5.27,2.73,6.16,6.58,11,11.54,14.52,6.62,4.69,15.46,7.04,26.53,7.04,10.35,0,18.5-1.95,24.45-5.87,5.95-3.91,8.93-8.87,8.93-14.89,0-5.29-2.14-9.62-6.41-12.99-4.27-3.37-10.8-5.96-19.58-7.76l-34.83-7.22c-19.49-3.97-34.05-10.74-43.67-20.3-9.63-9.56-14.44-21.87-14.44-36.91,0-12.99,3.55-24.15,10.65-33.48,7.1-9.32,16.96-16.51,29.6-21.57,12.63-5.05,27.49-7.58,44.58-7.58,15.88,0,29.66,2.2,41.33,6.59,11.67,4.39,21.11,10.62,28.33,18.68,4.76,5.31,8.47,11.25,11.13,17.81,2.2,5.42-1.15,11.49-6.91,12.5l-30.56,5.4c-3.89.69-7.82-1.19-9.66-4.68-2.22-4.23-5.36-7.87-9.4-10.91-5.84-4.39-13.69-6.59-23.55-6.59-8.9,0-16.36,1.87-22.38,5.6-6.02,3.73-9.02,8.72-9.02,14.98,0,5.05,1.95,9.33,5.86,12.81,3.91,3.49,10.62,6.2,20.12,8.12l36.27,7.22c19.49,3.97,33.99,10.44,43.49,19.4,9.5,8.96,14.26,20.66,14.26,35.1,0,13.24-3.85,24.81-11.55,34.74-7.7,9.93-18.32,17.66-31.85,23.19-13.54,5.53-29.15,8.3-46.83,8.3Z"/>
    <path class="cls-1" d="M786.95,68.84c-1.78-4.75,1.74-9.83,6.83-9.83h41.76c3.16,0,5.96,2.04,6.94,5.05l32.29,99.62c4.08,13.25,7.43,26.49,10.02,39.7,0,.04.02.09.03.13.62,3.19,5.15,3.29,5.92.13.03-.11.06-.23.08-.34,3.25-13.29,7.05-26.51,11.38-39.63l33.69-99.71c1-2.97,3.78-4.95,6.9-4.95h41.06c5.1,0,8.62,5.1,6.81,9.87l-80.28,205.46c-4.08,10.83-9.32,20.21-15.69,28.15-6.37,7.94-14.31,14.09-23.82,18.41-9.51,4.33-21,6.48-34.47,6.48-7.22,0-13.95-.51-20.21-1.53-2.85-.47-5.46-.98-7.83-1.57-4.06-1-6.45-5.2-5.24-9.21l8.34-27.32c1.13-3.69,4.93-5.86,8.7-4.93,5.01,1.32,9.64,2,13.9,2,1.89,0,3.69-.13,5.41-.4,5.65-.83,10.19-3.12,13.63-6.84,2.77-3.03,4.66-7.03,5.66-12.03.45-2.23.24-4.54-.56-6.67l-71.25-190.05Z"/>
  </g>
</svg>